<?xml version="1.0" encoding="utf-8"?>

<!DOCTYPE svg PUBLIC "-//W3C//DTD SVG 1.1//EN" "http://www.w3.org/Graphics/SVG/1.1/DTD/svg11.dtd">
<!-- Uploaded to: SVG Repo, www.svgrepo.com, Generator: SVG Repo Mixer Tools -->
<svg version="1.1" id="GIFT" xmlns="http://www.w3.org/2000/svg" xmlns:xlink="http://www.w3.org/1999/xlink" 
	 width="800px" height="800px" viewBox="0 0 1800 1800" enable-background="new 0 0 1800 1800" xml:space="preserve">
<path fill="#333333" d="M1767.367,358.009h-276.059c0.318-51.483-6-101.019-19.174-146.457
	c-30.153-104.006-92.074-174.999-174.359-199.906c-82.275-24.902-173.179-0.171-255.948,69.653
	c-59.842,50.483-110.403,120.564-146.689,202.113c-36.296-81.549-86.849-151.63-146.699-202.113
	c-82.77-69.825-173.664-94.547-255.949-69.653c-82.276,24.907-144.199,95.899-174.353,199.906
	c-13.174,45.438-19.492,94.974-19.179,146.457H32.633c-17.443,0-31.582,14.139-31.582,31.582v342.886
	c0,17.443,14.139,31.582,31.582,31.582h103.769v1002.154c0,17.439,14.138,31.582,31.581,31.582h593.286h277.465h593.284
	c17.438,0,31.581-14.143,31.581-31.582V764.059h103.769c17.438,0,31.581-14.139,31.581-31.582V389.591
	C1798.948,372.148,1784.805,358.009,1767.367,358.009z M1082.556,129.576c65.877-55.563,135.808-75.976,196.927-57.471
	c61.109,18.496,107.988,74.267,131.983,157.036c11.543,39.794,17.059,83.374,16.751,128.869h-389.483H933.538
	C966.159,264.106,1018.466,183.646,1082.556,129.576z M378.802,229.141c23.993-82.77,70.872-138.54,131.991-157.036
	c61.119-18.518,131.049,1.912,196.927,57.471c64.088,54.07,116.387,134.53,149.017,228.434h-95.468H362.055
	C361.742,312.514,367.263,268.935,378.802,229.141z M64.215,700.896V421.172h238.4h63.538h363.535v279.723H167.983H64.215z
	 M199.565,764.059h530.122v970.573H199.565V764.059z M792.851,1734.632V764.059v-63.163V421.172h214.301v279.723v63.163v970.573
	H792.851z M1600.436,1734.632h-530.12V764.059h530.12V1734.632z M1735.786,700.896h-103.769h-561.702V421.172h353.795h63.551
	h248.125V700.896z"/>
</svg>